<?xml version="1.0" encoding="UTF-8" standalone="no"?>
<!DOCTYPE svg PUBLIC "-//W3C//DTD SVG 1.1//EN"
 "http://www.w3.org/Graphics/SVG/1.1/DTD/svg11.dtd">
<!-- Generated by graphviz version 2.38.0 (20140413.2041)
 -->
<!-- Title: %3 Pages: 1 -->
<svg width="179pt" height="187pt"
 viewBox="0.00 0.00 178.50 187.10" xmlns="http://www.w3.org/2000/svg" xmlns:xlink="http://www.w3.org/1999/xlink">
<g id="graph0" class="graph" transform="scale(1 1) rotate(0) translate(4 183.095)">
<title>%3</title>
<polygon fill="white" stroke="none" points="-4,4 -4,-183.095 174.5,-183.095 174.5,4 -4,4"/>
<!-- x -->
<g id="node1" class="node"><title>x</title>
<polygon fill="lightgray" stroke="black" points="20,-119.246 0,-119.246 0,-101.246 20,-101.246 20,-119.246"/>
<text text-anchor="middle" x="10" y="-108.046" font-family="Times New Roman,serif" font-size="9.00">x</text>
</g>
<!-- control -->
<g id="node5" class="node"><title>control</title>
<ellipse fill="lightblue" stroke="black" cx="76" cy="-29.6985" rx="29.8983" ry="29.8983"/>
<text text-anchor="middle" x="76" y="-27.4985" font-family="Times New Roman,serif" font-size="9.00">control</text>
</g>
<!-- x&#45;&gt;control -->
<g id="edge2" class="edge"><title>x&#45;&gt;control</title>
<path fill="none" stroke="green" stroke-width="0.144589" d="M16.8146,-101.136C24.8179,-91.6112 38.556,-75.2612 50.7827,-60.7101"/>
<polygon fill="green" stroke="green" stroke-width="0.144589" points="53.6202,-62.7737 57.3737,-52.866 48.261,-58.2705 53.6202,-62.7737"/>
</g>
<!-- dx -->
<g id="node2" class="node"><title>dx</title>
<polygon fill="lightgray" stroke="black" points="63.5,-119.246 38.5,-119.246 38.5,-101.246 63.5,-101.246 63.5,-119.246"/>
<text text-anchor="middle" x="51" y="-108.046" font-family="Times New Roman,serif" font-size="9.00">dx</text>
</g>
<!-- dx&#45;&gt;control -->
<g id="edge5" class="edge"><title>dx&#45;&gt;control</title>
<path fill="none" stroke="green" stroke-width="0.321518" d="M53.5813,-101.136C56.1013,-93.2183 60.1225,-80.5842 64.068,-68.1877"/>
<polygon fill="green" stroke="green" stroke-width="0.321518" points="67.4881,-68.982 67.1859,-58.3915 60.8179,-66.8589 67.4881,-68.982"/>
</g>
<!-- theta -->
<g id="node3" class="node"><title>theta</title>
<polygon fill="lightgray" stroke="black" points="170.5,-179.095 135.5,-179.095 135.5,-161.095 170.5,-161.095 170.5,-179.095"/>
<text text-anchor="middle" x="153" y="-167.895" font-family="Times New Roman,serif" font-size="9.00">theta</text>
</g>
<!-- 2 -->
<g id="node6" class="node"><title>2</title>
<ellipse fill="white" stroke="black" cx="153" cy="-110.246" rx="14.7" ry="14.7"/>
<text text-anchor="middle" x="153" y="-108.046" font-family="Times New Roman,serif" font-size="9.00">2</text>
</g>
<!-- theta&#45;&gt;2 -->
<g id="edge4" class="edge"><title>theta&#45;&gt;2</title>
<path fill="none" stroke="red" stroke-width="0.286137" d="M153,-161.052C153,-154.447 153,-144.731 153,-135.631"/>
<polygon fill="red" stroke="red" stroke-width="0.286137" points="156.5,-135.453 153,-125.453 149.5,-135.453 156.5,-135.453"/>
</g>
<!-- dtheta -->
<g id="node4" class="node"><title>dtheta</title>
<polygon fill="lightgray" stroke="black" points="120.5,-119.246 81.5,-119.246 81.5,-101.246 120.5,-101.246 120.5,-119.246"/>
<text text-anchor="middle" x="101" y="-108.046" font-family="Times New Roman,serif" font-size="9.00">dtheta</text>
</g>
<!-- dtheta&#45;&gt;control -->
<g id="edge1" class="edge"><title>dtheta&#45;&gt;control</title>
<path fill="none" stroke="green" stroke-width="0.518203" d="M98.4187,-101.136C95.8987,-93.2183 91.8775,-80.5842 87.932,-68.1877"/>
<polygon fill="green" stroke="green" stroke-width="0.518203" points="91.1821,-66.8589 84.8141,-58.3915 84.5119,-68.982 91.1821,-66.8589"/>
</g>
<!-- 2&#45;&gt;control -->
<g id="edge3" class="edge"><title>2&#45;&gt;control</title>
<path fill="none" stroke="red" stroke-width="0.493515" d="M142.934,-98.9775C133.028,-88.8724 117.448,-72.9792 103.811,-59.0682"/>
<polygon fill="red" stroke="red" stroke-width="0.493515" points="105.983,-56.2841 96.4829,-51.5931 100.984,-61.1844 105.983,-56.2841"/>
</g>
</g>
</svg>
